<?xml version="1.0" standalone="no"?>
<!DOCTYPE svg PUBLIC "-//W3C//DTD SVG 20010904//EN"
 "http://www.w3.org/TR/2001/REC-SVG-20010904/DTD/svg10.dtd">
<svg version="1.0" xmlns="http://www.w3.org/2000/svg"
 width="260.000000pt" height="260.000000pt" viewBox="0 0 260.000000 260.000000"
 preserveAspectRatio="xMidYMid meet">
<metadata>
Created by potrace 1.11, written by Peter Selinger 2001-2013
</metadata>
<g transform="translate(0.000000,260.000000) scale(0.100000,-0.100000)"
fill="#000000" stroke="none">
<path d="M610 2370 c0 -8 7 -45 26 -140 4 -19 9 -478 11 -1020 2 -541 6 -986
8 -988 4 -4 292 -6 346 -3 14 1 16 46 16 454 1 495 6 553 58 642 38 64 143
145 189 145 31 0 102 -44 134 -82 63 -78 66 -102 67 -605 l0 -453 -122 -47
c-67 -26 -120 -50 -117 -52 6 -6 750 -5 760 2 6 3 9 234 8 564 -2 532 -3 562
-23 636 -37 138 -107 235 -216 297 -140 80 -366 87 -520 16 -63 -29 -173 -132
-196 -183 -7 -18 -16 -33 -19 -33 -3 0 -5 147 -5 328 0 361 -4 384 -68 483
l-29 45 -154 1 c-85 1 -154 -2 -154 -7z"/>
</g>
</svg>
