<?xml version="1.0" standalone="no"?>
<!DOCTYPE svg PUBLIC "-//W3C//DTD SVG 20010904//EN"
 "http://www.w3.org/TR/2001/REC-SVG-20010904/DTD/svg10.dtd">
<svg version="1.0" xmlns="http://www.w3.org/2000/svg"
 width="260.000000pt" height="260.000000pt" viewBox="0 0 260.000000 260.000000"
 preserveAspectRatio="xMidYMid meet">
<metadata>
Created by potrace 1.11, written by Peter Selinger 2001-2013
</metadata>
<g transform="translate(0.000000,260.000000) scale(0.100000,-0.100000)"
fill="#000000" stroke="none">
<path d="M685 2260 c-2 -3 0 -24 5 -46 5 -21 12 -57 15 -79 4 -22 8 -427 10
-900 2 -473 4 -870 4 -883 l1 -23 163 3 162 3 1 411 c2 438 7 493 55 570 25
41 78 88 127 113 37 19 39 19 78 1 42 -19 75 -47 100 -85 37 -56 41 -111 42
-521 l1 -400 -110 -43 c-60 -24 -109 -45 -109 -47 0 -2 155 -3 345 -3 l345 0
0 502 c-1 544 -4 577 -60 686 -72 142 -246 228 -433 214 -160 -11 -297 -88
-356 -199 -11 -22 -21 -34 -21 -29 -1 6 -1 134 -2 285 -1 253 -3 281 -22 342
-12 36 -33 81 -48 99 l-26 34 -132 0 c-72 0 -133 -2 -135 -5z"/>
</g>
</svg>
